<svg width="100" height="100" viewBox="0 0 100 100" xmlns="http://www.w3.org/2000/svg">
  <rect width="100" height="100" fill="#9eb0d8"/>
  <g transform="translate(6,0)">
    <g fill="#1d2c4e">
      <!-- left side -->
      <path d="M 10 10 L 10 80 L 20 90 L 25 90 L 25 20 L 15 10 Z"/>
      <path d="M 10 10 L 84 84 L 84 90 L 70 90 L 10 30 Z"/>
      <!-- right-up corner -->
      <path d="M 30 10 L 70 50 L 70 55 L 30 15 Z" />
      <path d="M 30 10 L 43 10 L 70 37 L 70 55 Z" />
      <path d="M 68 10 L 68 55 L 83 55 L 83 18 L 75 10 Z" />
      <path d="M 70 50 L 70 55 L 65 55 L 55 45 L 55 35 Z"/>
    </g>
    <g fill="#97363a">
      <!-- right-down corner -->
      <path d="M 83 60 L 83 75 L 68 60 Z" />
    </g>
  </g>
</svg>